<?xml version="1.0" encoding="UTF-8"?>
<svg version="1.1" xmlns="http://www.w3.org/2000/svg" width="919" height="102">
<path d="M0 0 C1.31468311 -0.00751056 2.62936622 -0.01502111 3.98388821 -0.02275926 C5.45462562 -0.01592805 6.92536178 -0.00882344 8.39609671 -0.00147593 C9.95574415 -0.00460294 11.51538942 -0.00904489 13.07502979 -0.01468903 C17.39154215 -0.02644402 21.70785504 -0.01934353 26.0243644 -0.00935517 C30.70873578 -0.00178278 35.39307525 -0.01150975 40.07744217 -0.01908517 C48.29753574 -0.0299519 56.51757027 -0.0295722 64.73766661 -0.02194369 C76.96090493 -0.01063077 89.18409314 -0.01637941 101.40733109 -0.02556861 C123.23364649 -0.04139543 145.0599356 -0.03998491 166.88625352 -0.03133187 C185.98639257 -0.02379646 205.08652197 -0.02180984 224.1866622 -0.0253998 C226.08430172 -0.02574354 226.08430172 -0.02574354 228.0202774 -0.02609421 C233.15521263 -0.02702817 238.29014786 -0.02798337 243.42508308 -0.02897351 C279.2796856 -0.03580486 315.13428412 -0.03699733 350.9888854 -0.02578318 C352.00307494 -0.02546706 352.00307494 -0.02546706 353.03775316 -0.02514455 C364.0183586 -0.0217095 374.99896398 -0.01805121 385.97956935 -0.01437403 C429.53287775 0.00019554 473.08615848 -0.00048069 516.63946676 -0.01506579 C527.61446521 -0.01872921 538.58946366 -0.0223623 549.56446218 -0.02578318 C550.57804891 -0.0261002 550.57804891 -0.0261002 551.61211213 -0.02642362 C588.0711855 -0.03774881 624.53025688 -0.03525919 660.98933125 -0.028229 C666.11511596 -0.02726679 671.24090067 -0.02632827 676.36668539 -0.0253998 C677.62886001 -0.02516257 678.89103463 -0.02492534 680.19145696 -0.02468092 C699.28340932 -0.02126304 718.37535097 -0.02526947 737.46730185 -0.03283846 C759.16745554 -0.04139839 780.86757876 -0.03930999 802.56772864 -0.02299623 C814.72474307 -0.01415925 826.88169156 -0.01365267 839.03870434 -0.02493476 C847.14595672 -0.03163119 855.25315592 -0.02753125 863.36040038 -0.01442045 C867.98841388 -0.00724262 872.61629579 -0.00492923 877.24430543 -0.0156384 C881.44719494 -0.02526529 885.64983502 -0.02130608 889.85270602 -0.00609642 C891.37073438 -0.00305285 892.88878297 -0.00513053 894.40679543 -0.01271423 C896.45562844 -0.02223054 898.50452592 -0.01170456 900.55334759 0 C902.26056257 0.00030492 902.26056257 0.00030492 904.00226673 0.00061599 C906.77667379 0.37604749 906.77667379 0.37604749 908.64140168 1.65327456 C910.72742387 4.81880863 910.19970391 8.70096239 910.18072653 12.37385023 C910.1910214 13.75475339 910.1910214 13.75475339 910.20152426 15.1635536 C910.21985368 18.21240554 910.21594593 21.26074592 910.21026754 24.30964124 C910.21482648 26.42569622 910.22013119 28.54174971 910.22615194 30.65780103 C910.23509519 35.09560122 910.23264618 39.53322157 910.22271872 43.9710182 C910.21122917 49.66210373 910.23143443 55.35256879 910.26063585 61.04357278 C910.27896979 65.41444322 910.27871095 69.78516421 910.27299833 74.15606344 C910.27284477 76.2544546 910.27891819 78.35285568 910.29128981 80.45121038 C910.30614438 83.38415443 910.29556322 86.31594269 910.27838278 89.24885023 C910.28805075 90.11807615 910.29771872 90.98730207 910.30767965 91.88286817 C910.29784552 92.68337598 910.28801138 93.4838838 910.27787924 94.30864942 C910.27766995 95.00162846 910.27746067 95.6946075 910.27724504 96.40858591 C909.52936914 99.34806179 908.11966648 100.48508387 905.77667379 102.37604749 C902.8833296 102.87662283 902.8833296 102.87662283 899.44312382 102.87744415 C898.12931647 102.88745822 896.81550913 102.8974723 895.46188945 102.90778983 C893.99733444 102.89868209 892.53278166 102.8892093 891.06823111 102.87941206 C889.51112924 102.88358256 887.95403124 102.88950603 886.39694196 102.89702952 C882.09210637 102.91268653 877.78762692 102.90324418 873.48279677 102.88991771 C868.80937817 102.87981328 864.13601616 102.89279364 859.46260548 102.90289104 C851.26326508 102.91737421 843.06402991 102.9168773 834.86468458 102.9067024 C822.67227706 102.89161323 810.47995882 102.89928612 798.28755195 102.91153563 C776.51580747 102.93263393 754.74410984 102.930759 732.97236086 102.91921998 C713.9199391 102.90917135 694.86753455 102.90652459 675.81511068 102.91131055 C673.921951 102.91176886 673.921951 102.91176886 671.99054566 102.91223643 C666.86768687 102.91348172 661.74482809 102.91475531 656.62196933 102.91607549 C620.85345863 102.92518344 585.08495439 102.9267751 549.31644583 102.91182172 C548.64199699 102.91154073 547.96754816 102.91125973 547.27266148 102.91097022 C536.31941376 102.90639019 525.36616618 102.90151245 514.4129186 102.89660953 C470.96856138 102.87718354 427.52425346 102.87808517 384.07989645 102.89753187 C373.1322316 102.90241646 362.18456675 102.90726059 351.23690176 102.91182172 C350.56285319 102.91210352 349.88880462 102.91238531 349.19433033 102.91267564 C312.82267597 102.92777713 276.45102466 102.92445591 240.07936859 102.91508281 C234.96565803 102.91379988 229.85194747 102.91254852 224.7382369 102.91131055 C223.47904251 102.91099424 222.21984812 102.91067793 220.92249632 102.91035204 C201.87859654 102.90579555 182.83471583 102.9111355 163.79081869 102.92122877 C142.14450765 102.93264386 120.49825094 102.92985347 98.85194671 102.90810579 C86.72622479 102.8963263 74.6006204 102.89564318 62.47490143 102.91069049 C54.38726266 102.91962284 46.29971863 102.91414559 38.21209396 102.89667141 C33.59609448 102.8871062 28.98032945 102.8840056 24.36433691 102.89829534 C20.17115278 102.91114457 15.9784127 102.90583303 11.78526141 102.8855727 C10.27189648 102.88151935 8.75849539 102.88427285 7.24515889 102.89439645 C5.20021225 102.90711351 3.15515055 102.89303094 1.11022377 102.87744415 C-0.02504414 102.87717311 -1.16031205 102.87690208 -2.32998201 102.87662283 C-5.86540185 102.26496246 -7.04136796 101.1666424 -9.22332621 98.37604749 C-9.72389746 96.40858591 -9.72389746 96.40858591 -9.72453165 94.30864942 C-9.73436579 93.50814161 -9.74419992 92.7076338 -9.75433207 91.88286817 C-9.7446641 91.01364225 -9.73499613 90.14441633 -9.72503519 89.24885023 C-9.73043818 88.3264958 -9.73584116 87.40414136 -9.74140787 86.4538368 C-9.75391406 83.4054451 -9.73739263 80.35799426 -9.71941996 77.30964124 C-9.71957489 75.19262108 -9.72106287 73.07560064 -9.72382975 70.95858228 C-9.72521454 66.52249583 -9.71264088 62.08673238 -9.68987894 57.6507057 C-9.66147695 51.9584979 -9.66423535 46.26682622 -9.67696905 40.57457864 C-9.68391622 36.20374426 -9.67614822 31.83303428 -9.66371202 27.46221578 C-9.65918939 25.3630118 -9.65886778 23.2637945 -9.66277742 21.16458929 C-9.66568063 18.23406324 -9.64922583 15.30428224 -9.62737894 12.37385023 C-9.63188059 11.50260007 -9.63638224 10.63134992 -9.6410203 9.73369825 C-9.56858487 3.89997676 -9.56858487 3.89997676 -8.08805409 1.65327456 C-5.37078931 -0.20788929 -3.27728888 0.00058534 0 0 Z M-7.22332621 3.37604749 C-8.86998324 7.24464738 -8.3786634 11.67801049 -8.38445902 15.82892835 C-8.38942392 16.6797952 -8.39438883 17.53066206 -8.39950418 18.40731275 C-8.41409459 21.21851384 -8.42092175 24.02965854 -8.42645121 26.84089124 C-8.43220416 28.79617792 -8.43796187 30.75146458 -8.44372416 32.70675123 C-8.45422451 36.80477127 -8.46007385 40.90277175 -8.46356058 45.00080335 C-8.4690507 50.2510867 -8.49309388 55.50111142 -8.52153254 60.75131357 C-8.54015531 64.78934967 -8.54536427 68.82732334 -8.54689646 72.86539876 C-8.54992309 74.80108595 -8.55795199 76.73677203 -8.57108164 78.67241704 C-8.58813847 81.37973607 -8.58626309 84.08642113 -8.57977152 86.7937721 C-8.5889863 87.59237653 -8.59820108 88.39098096 -8.6076951 89.21378553 C-8.57301307 93.83173259 -8.15664644 96.76760481 -5.22332621 100.37604749 C-2.36788565 101.12804052 -2.36788565 101.12804052 0.98717594 101.00279331 C2.29899222 101.0153109 3.61080849 101.0278285 4.96237677 101.04072541 C6.42987531 101.02934006 7.89737036 101.01749904 9.36486197 101.0052532 C10.92110406 101.0104649 12.47734009 101.01786818 14.03356248 101.02727503 C18.34072486 101.0468671 22.64733197 101.03503304 26.95448599 101.01838526 C31.62861294 101.00576449 36.30265108 101.02197621 40.97676563 101.03460193 C49.17886789 101.05271317 57.38080581 101.05208039 65.58291578 101.03936613 C77.77938162 101.02051118 89.97570794 101.03009232 102.17217274 101.04540766 C123.95064581 101.07178568 145.72904572 101.06943485 167.50752582 101.0550131 C186.56579114 101.04245406 205.62402958 101.03914304 224.68229818 101.04512632 C225.94461851 101.04550824 227.20693883 101.04589017 228.50751128 101.04628367 C233.63119263 101.04784026 238.75487396 101.04943225 243.87855528 101.05108249 C279.65456884 101.06246807 315.43057231 101.06445553 351.20658255 101.04576528 C351.88122651 101.04541404 352.55587048 101.04506279 353.2509582 101.0447009 C364.20748827 101.03897582 375.16401814 101.03287866 386.12054799 101.02675003 C429.57837742 101.0024674 473.03612985 101.00359445 516.49395895 101.02790296 C527.44489423 101.03400866 538.39582954 101.04006381 549.34676504 101.04576528 C550.02100802 101.04611752 550.69525099 101.04646976 551.38992557 101.04683268 C587.76908347 101.06570801 624.14823659 101.06155863 660.52739716 101.04984164 C665.6419479 101.04823796 670.75649865 101.04667377 675.8710494 101.04512632 C677.13045772 101.04473093 678.38986604 101.04433555 679.68743825 101.04392818 C698.73753469 101.03823172 717.78760136 101.04490907 736.83769369 101.05752409 C758.49029064 101.07179066 780.14280274 101.06830995 801.79538906 101.04112037 C813.92578227 101.02639205 826.05599189 101.02554766 838.1863805 101.04435124 C846.27589746 101.05551205 854.36526636 101.04867873 862.45476128 101.02682739 C867.07270491 101.01486418 871.69028221 101.01100833 876.30821508 101.02885731 C880.50205359 101.04490284 884.69519782 101.03830405 888.88898482 101.012954 C890.4036765 101.00788145 891.91842451 101.01134435 893.43307195 101.02398369 C895.47738919 101.03984421 897.52188595 101.02230026 899.56617165 101.00279331 C900.70181927 101.00245452 901.8374669 101.00211572 903.0075281 101.00176666 C905.9590017 100.63463761 905.9590017 100.63463761 907.64144132 98.08115383 C909.21354133 94.33505091 909.18728773 90.8032325 909.14898825 86.80964124 C909.15263891 85.95862836 909.15628958 85.10761549 909.16005087 84.23081434 C909.16814003 81.42485412 909.15455983 78.61947436 909.13995504 75.81354749 C909.13943624 73.85969007 909.13995472 71.90583213 909.14146566 69.95197523 C909.14137601 65.8598548 909.13096115 61.76793167 909.11285543 57.67585218 C909.09016864 52.43347366 909.08962499 47.19138335 909.09637308 41.94896924 C909.09971636 37.91520606 909.09307617 33.88150844 909.08324385 29.8477577 C909.07939777 27.91487952 909.07824118 25.98199403 909.07982969 24.04911268 C909.08020102 21.34675195 909.06756124 18.64475914 909.051332 15.94245374 C909.05380941 15.14542036 909.05628683 14.34838697 909.05883932 13.52720106 C909.01965057 9.43346637 908.93733304 5.92873341 906.77667379 2.37604749 C903.40062308 1.13527973 900.04648669 1.25046897 896.48274666 1.24954766 C895.17779605 1.24678792 893.87284543 1.24402817 892.52835086 1.2411848 C891.07381 1.2431728 889.61926926 1.24525227 888.16472864 1.24741304 C886.61816702 1.24606712 885.07160573 1.24428365 883.52504507 1.24210081 C879.24956779 1.23735282 874.97411171 1.23887826 870.69863337 1.24137858 C866.05692098 1.24300628 861.41521322 1.23887532 856.77350229 1.2354694 C848.62979847 1.23030533 840.4861006 1.22889994 832.34239531 1.22992551 C820.23264477 1.23144685 808.12290084 1.2272967 796.01315159 1.22205089 C773.13024946 1.2123656 750.24734957 1.20956622 727.36444563 1.20899383 C709.69867712 1.20853483 692.03290948 1.2064793 674.36714125 1.2032932 C669.28770985 1.2023957 664.20827846 1.20150589 659.12884706 1.20061833 C657.86620029 1.20039728 656.60355352 1.20017623 655.30264473 1.19994848 C619.77348543 1.19379191 584.24432639 1.18984228 548.71516657 1.19029176 C547.36132982 1.19030754 546.00749308 1.19032328 544.65365633 1.19033897 C538.5410117 1.19041236 532.42836707 1.19050053 526.31572244 1.19059286 C523.58986201 1.19063398 520.86400158 1.19067413 518.13814115 1.19071417 C516.77379825 1.19073456 515.40945535 1.19075558 514.04511245 1.19077723 C470.89402458 1.19145762 427.74294491 1.18413808 384.59185934 1.17023695 C373.71861444 1.16673604 362.84536954 1.16326664 351.97212458 1.15997255 C350.96791714 1.15966824 350.96791714 1.15966824 349.94342268 1.15935778 C313.81536891 1.14847575 277.68731466 1.14649521 241.55925936 1.14720017 C236.47951361 1.1472748 231.39976786 1.14732351 226.32002211 1.14735448 C225.06919404 1.14736614 223.81836597 1.14737779 222.52963402 1.1473898 C202.36461739 1.14742063 182.19960767 1.14102362 162.0345931 1.13242222 C141.78388122 1.12396265 121.5331795 1.12294244 101.28246684 1.12953154 C89.23919007 1.13323845 77.19594404 1.13136095 65.1526705 1.1215892 C57.1187202 1.11561918 49.08479232 1.11685123 41.05084307 1.1240597 C36.46637115 1.12796655 31.881959 1.12864469 27.29749114 1.12060235 C23.13181079 1.11335826 18.96624034 1.11521864 14.80056499 1.12452621 C13.29823148 1.12625606 11.79588951 1.12459163 10.29356459 1.11922501 C8.26103628 1.11244725 6.22847629 1.11911437 4.19595009 1.12649983 C2.5045128 1.1263675 2.5045128 1.1263675 0.77890507 1.12623249 C-2.29875022 1.38232351 -4.48222696 1.96990587 -7.22332621 3.37604749 Z " fill="#835324" transform="translate(9.223326206207275,-0.3760474920272827)"/>
<path d="M0 0 C21.32330729 -0.09357327 42.64658058 -0.16404281 63.97005177 -0.20724869 C73.87162465 -0.227846 83.77306972 -0.25591233 93.67456055 -0.30175781 C102.30790425 -0.34171241 110.94115536 -0.36745338 119.57458895 -0.37635398 C124.14305667 -0.38155415 128.71125954 -0.39371708 133.27964211 -0.42292023 C137.58638507 -0.4502258 141.89275602 -0.45841465 146.19957733 -0.45243073 C147.7736711 -0.45352423 149.34777832 -0.46138759 150.9217968 -0.4768219 C163.89331786 -0.5976948 174.06409506 1.27165707 184 10 C184.59425781 10.48984375 185.18851563 10.9796875 185.80078125 11.484375 C191.52460104 16.61169916 194.63858368 23.20564787 198 30 C198.3403125 29.35933594 198.680625 28.71867187 199.03125 28.05859375 C204.08713738 19.03598622 209.69004105 13.22169559 219.5234375 9.64453125 C223.15265113 8.70001982 226.26962786 8.72367614 230 9 C229.67 9.66 229.34 10.32 229 11 C226.84765625 11.421875 226.84765625 11.421875 224.0625 11.75 C216.87889805 12.97214527 210.94697858 15.58931464 206.11328125 21.18359375 C200.51236298 29.22559021 198.20369293 37.6437453 199.5625 47.375 C201.25166619 55.38742644 204.71181464 61.77230935 211.5 66.5 C216.01821206 69.18221619 219.98974328 70.96207063 225.3125 71.0625 C229.64402392 72.1637349 230.00192734 73.09394426 232.66252041 76.48716545 C237.36972337 81.29006125 241.46494053 82.02288418 247.89393207 82.18973755 C250.29267262 82.20427872 252.68862037 82.17385296 255.08717346 82.14285278 C256.83405671 82.15323046 258.5809203 82.16752956 260.32774299 82.18539798 C265.11536717 82.22291294 269.90137348 82.20442812 274.68900287 82.17652202 C279.85684572 82.15614372 285.02441195 82.18759712 290.19219971 82.21234131 C300.31052611 82.25235275 310.42825156 82.24372132 320.54660148 82.21762754 C328.76957645 82.1972997 336.99238302 82.19454648 345.2153759 82.20434189 C346.38582451 82.20572099 347.55627312 82.20710008 348.76218988 82.20852097 C351.13994127 82.2113985 353.51769261 82.21431642 355.89544391 82.21727429 C378.18917259 82.24293546 400.48256814 82.21343414 422.77624219 82.165071 C441.90625206 82.12485596 461.03577046 82.13184987 480.16577148 82.17333984 C502.38139165 82.22149948 524.59671995 82.2404691 546.81238502 82.21282947 C549.18106992 82.20996253 551.54975487 82.20713319 553.91843987 82.20434189 C555.08387792 82.20295341 556.24931598 82.20156493 557.45007034 82.20013437 C565.66390867 82.19236268 573.87756188 82.20548169 582.09137154 82.22665787 C592.10029353 82.25189491 602.10858027 82.24508065 612.11742944 82.19713117 C617.22453569 82.1734711 622.33058271 82.16422459 627.4376812 82.19397354 C632.1132677 82.22079715 636.7868136 82.20605513 641.46221494 82.15817557 C643.15317365 82.14812349 644.84430484 82.15323559 646.53515262 82.17505766 C655.61557928 82.53172189 655.61557928 82.53172189 663.63012874 78.96203399 C665.74752673 76.58217651 665.74752673 76.58217651 667.32135433 74.04453838 C670.01510247 70.76363666 673.16972105 70.94957749 677.19140625 70.4921875 C683.09303577 69.45796591 687.99317456 66.32259922 691.88671875 61.81640625 C698.04150049 52.97915305 698.90160004 44.62128826 698 34 C695.98549772 25.96275895 692.36684023 20.37732603 685.4375 15.8125 C681.66898272 13.60356056 678.7019455 12.65690438 674.375 12.1875 C669.47304103 11.57665977 669.47304103 11.57665977 667.32206404 8.95451534 C666.79514381 8.14304927 666.26822358 7.33158321 665.72533607 6.49552727 C662.6144352 2.84202147 660.35946179 1.42989256 655.52895113 0.96964855 C651.68801237 0.80334007 647.86285251 0.82806292 644.0196228 0.88406372 C642.27218336 0.87655456 640.52475716 0.86510754 638.77736628 0.85007083 C633.98355837 0.82027448 629.19145283 0.84654812 624.39774466 0.88211417 C619.22520011 0.91071141 614.05285489 0.88739304 608.8802948 0.87060547 C598.75108982 0.84599806 588.62253957 0.8695064 578.49340533 0.90941931 C566.70066963 0.95419862 554.90808017 0.95234269 543.11527689 0.94876824 C522.07703973 0.9440768 501.03910948 0.98322526 480.00097656 1.04638672 C459.58000935 1.10766852 439.15934046 1.13598486 418.73828125 1.12841797 C392.9579049 1.11893983 367.17770876 1.13793673 341.39736699 1.1810802 C333.17414827 1.19401546 324.9509612 1.19680391 316.72773361 1.19626236 C306.71007737 1.19618726 296.69265185 1.21477479 286.675081 1.25687434 C281.56242048 1.27798864 276.45007086 1.29117612 271.3373661 1.28284836 C266.65923749 1.27549705 261.98177837 1.29116741 257.30377455 1.32542001 C255.60945699 1.33379854 253.91507279 1.33373235 252.22075979 1.32447506 C249.92040442 1.31318425 247.62226552 1.3325275 245.32208824 1.35962105 C243.4045502 1.36409113 243.4045502 1.36409113 241.44827402 1.36865151 C236.94215462 2.19368214 235.25456515 3.85090887 232 7 C233.30216923 4.09516094 234.42919751 1.91553968 237 0 C240.08965325 -0.38180083 240.08965325 -0.38180083 243.98697281 -0.39148998 C244.70589598 -0.39734829 245.42481916 -0.40320659 246.16552788 -0.40924242 C248.59327816 -0.42530206 251.0205121 -0.41985286 253.44830322 -0.41459656 C255.1989492 -0.42162861 256.94959039 -0.42995455 258.70022464 -0.43946868 C263.52563319 -0.46178032 268.35090075 -0.46517159 273.17635417 -0.46546924 C278.37488061 -0.46896123 283.57334357 -0.48956629 288.77183533 -0.50779724 C300.14572808 -0.54427263 311.51958231 -0.558181 322.89352512 -0.56763434 C329.99216165 -0.57364834 337.09078589 -0.58440576 344.18941498 -0.59613991 C363.8339601 -0.62790416 383.47849426 -0.65460497 403.12306595 -0.66089153 C404.38093443 -0.66129867 405.63880292 -0.6617058 406.93478863 -0.66212528 C409.48492956 -0.66293299 412.03507049 -0.66373871 414.58521143 -0.66454246 C415.85114927 -0.66494804 417.11708712 -0.66535362 418.42138672 -0.66577148 C419.68886532 -0.66617346 420.95634392 -0.66657544 422.26223096 -0.6669896 C442.80481807 -0.67448093 463.34714304 -0.71896179 483.88963535 -0.7796289 C504.96789823 -0.8413797 526.0460304 -0.87324994 547.1243856 -0.87471896 C558.96416589 -0.87622186 570.80362309 -0.89053246 582.64331818 -0.93753624 C592.72440055 -0.97739005 602.80504887 -0.98989457 612.88619122 -0.96655061 C618.03157749 -0.95545066 623.17609972 -0.95736795 628.32138634 -0.99401855 C633.03085512 -1.02724945 637.73879805 -1.02364386 642.44825456 -0.990553 C644.15286669 -0.98508257 645.85758679 -0.9931718 647.56205347 -1.0161018 C660.37520117 -1.17745556 660.37520117 -1.17745556 664.49924612 1.81114805 C666.38862228 3.99840069 666.38862228 3.99840069 667.79745746 6.18611211 C668.9283211 8.28004403 668.9283211 8.28004403 671.73828125 9.0078125 C672.58777344 9.04648437 673.43726563 9.08515625 674.3125 9.125 C683.41115942 10.22332926 689.88783524 15.03343001 695.59375 22.03125 C697.4245696 24.59439744 698.76901089 27.10355504 700 30 C700.27650391 29.09121094 700.27650391 29.09121094 700.55859375 28.1640625 C704.28380267 17.40234784 711.91769401 9.22436358 722 4 C731.75303713 0.01480034 741.06141336 -0.55765479 751.4387207 -0.45410156 C753.04652884 -0.45297051 754.65433904 -0.45361197 756.262146 -0.45587158 C760.58580403 -0.4570096 764.90900952 -0.43364985 769.23256326 -0.40557575 C773.76619886 -0.38040836 778.29984719 -0.3782081 782.83354187 -0.37347412 C791.40033044 -0.36108909 799.9669125 -0.32832865 808.53361052 -0.28807616 C820.12276495 -0.23481515 831.71197667 -0.2133768 843.3012228 -0.19006729 C861.53430293 -0.15256353 879.76694747 -0.07284318 898 0 C898 27.39 898 54.78 898 83 C857.06555158 83.16121214 857.06555158 83.16121214 839.88476562 83.1953125 C828.03158632 83.21902786 816.17852092 83.24687615 804.32543945 83.30175781 C795.69209575 83.34171241 787.05884464 83.36745338 778.42541105 83.37635398 C773.85694333 83.38155415 769.28874046 83.39371708 764.72035789 83.42292023 C760.41361493 83.4502258 756.10724398 83.45841465 751.80042267 83.45243073 C750.2263289 83.45352423 748.65222168 83.46138759 747.0782032 83.4768219 C732.57289024 83.61198718 722.06798942 80.66899556 711 71 C706.03976537 65.77759652 703.00386238 59.48621611 700 53 C699.6596875 53.64066406 699.319375 54.28132813 698.96875 54.94140625 C693.43120911 64.82356034 687.03725724 70.85166761 676 74 C674.783125 74.0825 673.56625 74.165 672.3125 74.25 C668.32532192 75.1527573 668.42022544 75.71292013 666.35063076 78.98338318 C663.40769586 82.43008009 661.15569365 83.53096131 656.62031937 83.92344385 C652.76936268 84.07641256 648.93044915 84.05975994 645.07740784 84.01586914 C643.32400676 84.02508913 641.57062114 84.03779633 639.81726784 84.0536871 C635.00243831 84.08709655 630.18887658 84.07057313 625.37404239 84.04579735 C620.18028397 84.02770918 614.98674477 84.05562931 609.79302979 84.07763672 C599.61965939 84.11323137 589.44676086 84.10551658 579.27337188 84.08233559 C571.00554669 84.06427586 562.73785383 84.06181502 554.47001457 84.07052612 C553.29374426 84.07175199 552.11747394 84.07297785 550.90555907 84.07424086 C548.51605062 84.07679864 546.12654221 84.07939235 543.73703384 84.08202159 C521.32411847 84.10484053 498.91146476 84.07859497 476.49859231 84.03561866 C457.26512511 83.99988055 438.0320442 84.00608007 418.79858398 84.04296875 C396.46799846 84.08577744 374.13764238 84.10263828 351.80702156 84.07807064 C349.42594814 84.07552223 347.04487468 84.07300726 344.66380119 84.07052612 C342.90646681 84.06867482 342.90646681 84.06867482 341.11363073 84.06678611 C332.8557481 84.0598773 324.59801094 84.0715409 316.34015083 84.09036255 C306.27633421 84.11279595 296.21301677 84.10673736 286.14925737 84.0641166 C281.01388748 84.04308509 275.87934994 84.03486767 270.74398613 84.06130981 C266.04257279 84.08515144 261.34276306 84.0720491 256.64149522 84.0294894 C254.94105113 84.02055375 253.24047153 84.02509896 251.54011459 84.0444957 C238.7184149 84.17953755 238.7184149 84.17953755 234.36442745 81.19091606 C232.27033901 79.00682068 232.27033901 79.00682068 230.67550319 76.82414913 C227.93273869 73.83805427 224.66398162 74.00163488 220.8046875 73.53125 C212.42551079 71.94410789 205.73821451 65.83710529 201 59 C199.9677084 57.01647434 198.96080403 55.01912249 198 53 C197.38125 54.37671875 197.38125 54.37671875 196.75 55.78125 C190.90619048 68.37901275 184.28672059 75.78496217 171 81 C163.17089713 83.5966982 155.28177476 83.26722762 147.12890625 83.22705078 C145.5218354 83.22648601 143.91476403 83.22680451 142.30769348 83.22793579 C137.96321878 83.22850773 133.61885536 83.2167792 129.27440643 83.20278788 C124.72737701 83.19025398 120.18034481 83.18910792 115.63330078 83.18673706 C107.03100425 83.1805301 98.42875877 83.1641299 89.82648468 83.14403808 C80.02963662 83.12165467 70.23278608 83.11067951 60.43591881 83.10064721 C40.29058408 83.07976297 20.14529526 83.04460225 0 83 C-0.16602388 80.64097747 -0.32963382 78.28182713 -0.49191284 75.92254639 C-0.58322416 74.60879406 -0.67453548 73.29504173 -0.76861382 71.94147873 C-1.11096779 66.10975233 -1.14322928 60.2932575 -1.1328125 54.453125 C-1.13376923 53.23526306 -1.13472595 52.01740112 -1.13571167 50.76263428 C-1.13638586 48.21496529 -1.13458533 45.6672945 -1.13037109 43.11962891 C-1.12499317 39.24507774 -1.13035178 35.37064148 -1.13671875 31.49609375 C-1.1360582 29.00260391 -1.13477751 26.50911415 -1.1328125 24.015625 C-1.13483673 22.87264954 -1.13686096 21.72967407 -1.13894653 20.55206299 C-1.13421829 18.91415802 -1.13421829 18.91415802 -1.12939453 17.24316406 C-1.12859894 16.30023499 -1.12780334 15.35730591 -1.12698364 14.38580322 C-0.94645541 9.57232453 -0.46947303 4.79281952 0 0 Z M1 1 C0.97961045 3.37764825 0.96480354 5.75511836 0.953125 8.1328125 C0.94684082 8.79901611 0.94055664 9.46521973 0.93408203 10.15161133 C0.89500884 20.78603226 3.0704001 30.10560016 9 39 C8.80777406 42.363954 7.59751849 44.88044222 6.0625 47.8125 C1.46550716 56.72333757 0.93571188 66.44227428 0.9765625 76.328125 C0.97994629 77.39450195 0.98333008 78.46087891 0.98681641 79.55957031 C0.99116699 80.36491211 0.99551758 81.17025391 1 82 C20.26395788 82.04689102 39.52790404 82.08207215 58.79190731 82.10362434 C67.73816279 82.11390102 76.68438264 82.12789165 85.63061523 82.15087891 C93.43559453 82.17092402 101.24054799 82.1837426 109.04555231 82.18817699 C113.17146764 82.1907657 117.29730914 82.19677338 121.42320061 82.21146011 C125.32114503 82.2252206 129.21898649 82.22918614 133.1169529 82.22621536 C134.53370604 82.2267574 135.95046329 82.23062335 137.36719513 82.23841095 C144.99577903 82.27822218 152.50248603 81.9720138 160.07887268 81.11471558 C161.12333948 80.99911449 161.12333948 80.99911449 162.18890661 80.88117802 C173.53699016 79.47228196 182.57548087 74.73232433 190 66 C195.95054489 56.91316792 197.85564769 45.56644829 196.5 34.875 C194.33604544 24.60306378 189.45270272 15.37510239 181 9 C168.56656169 1.11022611 155.65698552 0.69827868 141.31738281 0.77294922 C139.7786866 0.77351468 138.23998985 0.77319415 136.70129395 0.77206421 C132.56159232 0.77149494 128.42200874 0.7831795 124.28233433 0.79721212 C119.9421964 0.80979124 115.6020552 0.81089561 111.26190186 0.81326294 C103.05993762 0.81945674 94.85802728 0.83583888 86.65608668 0.85596192 C77.31137468 0.8783866 67.96665999 0.88933081 58.62192774 0.89935279 C39.41458804 0.92020717 20.20729837 0.95534193 1 1 Z M737.92686462 1.88528442 C736.88188068 2.00088551 736.88188068 2.00088551 735.81578594 2.11882198 C724.36451962 3.53949566 715.59261408 8.33466796 708 17 C701.5579471 25.70056086 700.01797622 38.19249037 701.5 48.75 C704.02677277 59.33384068 709.35009322 68.34202759 718 75 C729.8267149 82.24519471 743.13354201 82.29759312 756.59082031 82.22705078 C758.11966443 82.22648531 759.6485091 82.22680587 761.17735291 82.22793579 C765.29019621 82.22850501 769.40292067 82.21682124 773.51573658 82.20278788 C777.82784724 82.19020795 782.13996122 82.18910433 786.4520874 82.18673706 C794.60092785 82.18054349 802.74971406 82.16416168 810.89853072 82.14403808 C820.18278433 82.12161266 829.46704065 82.11066901 838.75131464 82.10064721 C857.83424041 82.07979336 876.91711583 82.04465907 896 82 C896.05116425 78.46750189 896.08203579 74.93510026 896.109375 71.40234375 C896.12403809 70.40698608 896.13870117 69.41162842 896.15380859 68.3861084 C896.19885603 60.62346925 895.51192265 53.5755335 890.6328125 47.21875 C889.375 45.5625 889.375 45.5625 888 42 C889.14864029 38.81914997 890.62357963 36.06488763 892.3515625 33.16015625 C896.12813277 25.92023837 896.2682509 18.98899267 896.125 11 C896.11597656 10.03449219 896.10695313 9.06898437 896.09765625 8.07421875 C896.07430635 5.71587901 896.04156047 3.35807714 896 1 C876.86642601 0.95310726 857.73286382 0.91792702 838.59924412 0.89637566 C829.71352266 0.88609933 820.82783709 0.87210941 811.94213867 0.84912109 C804.18989709 0.82907486 796.43768152 0.81625714 788.68541473 0.81182301 C784.58744485 0.80923449 780.48954932 0.80322802 776.39160347 0.78853989 C772.51992369 0.77477762 768.64834758 0.7708142 764.77664566 0.77378464 C763.36956783 0.77324268 761.96248584 0.76937782 760.55542946 0.76158905 C752.95452164 0.72164414 745.47568992 1.03127118 737.92686462 1.88528442 Z M1 27 C1 36.57 1 46.14 1 56 C4.36352931 50.95470603 7.32892017 45.85918031 9 40 C8.10153483 36.61596055 6.27830902 34.58982044 4 32 C3.28050817 30.35544725 2.58353604 28.6975594 2 27 C1.67 27 1.34 27 1 27 Z M895 30 C890.26815692 37.35517117 890.26815692 37.35517117 889.64453125 45.57421875 C890.95462262 47.61675313 892.27958836 49.29302907 894 51 C894.66 51.66 895.32 52.32 896 53 C896 45.41 896 37.82 896 30 C895.67 30 895.34 30 895 30 Z " fill="#835324" transform="translate(10,10)"/>
<path d="M0 0 C4.55384615 -0.36923077 4.55384615 -0.36923077 6.8125 1.5 C7.204375 1.995 7.59625 2.49 8 3 C8.556875 2.690625 9.11375 2.38125 9.6875 2.0625 C12.22648005 0.8959416 14.20646106 0.20951542 17 0 C19.3125 1.4375 19.3125 1.4375 21 3 C21.99 2.34 22.98 1.68 24 1 C24.66 1.66 25.32 2.32 26 3 C25.625 5.125 25.625 5.125 25 7 C26.2684375 7.7734375 26.2684375 7.7734375 27.5625 8.5625 C28.366875 9.366875 29.17125 10.17125 30 11 C29.88231248 14.41293795 29.52982686 16.94034627 28 20 C28.66 20.37125 29.32 20.7425 30 21.125 C32 23 32 23 32.5 26 C32 29 32 29 30.1875 30.875 C28 32 28 32 25 32 C25 32.99 25 33.98 25 35 C26.65 34.01 28.3 33.02 30 32 C30.66 32.66 31.32 33.32 32 34 C31.625 36.125 31.625 36.125 31 38 C30.01 38 29.02 38 28 38 C27.67 37.67 27.34 37.34 27 37 C26.62875 37.825 26.2575 38.65 25.875 39.5 C25.25625 40.325 24.6375 41.15 24 42 C21 42.3125 21 42.3125 18 42 C17.01 42 16.02 42 15 42 C12.79857668 44.4390706 12.79857668 44.4390706 11 47 C8.1875 46.8125 8.1875 46.8125 5 46 C3.25 43.4375 3.25 43.4375 2 41 C1.34 41 0.68 41 0 41 C0.66 41.99 1.32 42.98 2 44 C1.625 46.1875 1.625 46.1875 1 48 C0.01 48 -0.98 48 -2 48 C-2.66 47.01 -3.32 46.02 -4 45 C-3.34 44.34 -2.68 43.68 -2 43 C-2.804375 42.690625 -3.60875 42.38125 -4.4375 42.0625 C-7 41 -7 41 -8 40 C-8.23529412 34.47058824 -8.23529412 34.47058824 -7 32 C-7.763125 31.9175 -8.52625 31.835 -9.3125 31.75 C-12 31 -12 31 -13.9375 29.25 C-15 27 -15 27 -14.375 24.4375 C-13.10680577 22.1893375 -11.94104323 20.67635552 -10 19 C-10.66 18.01 -11.32 17.02 -12 16 C-12.375 13 -12.375 13 -12 10 C-10 8.3125 -10 8.3125 -8 7 C-8 6.01 -8 5.02 -8 4 C-7.01 3.34 -6.02 2.68 -5 2 C-4.01 2.66 -3.02 3.32 -2 4 C-1.34 2.68 -0.68 1.36 0 0 Z M1 3 C-0.29524348 4.09354906 -0.29524348 4.09354906 -0.375 6.75 C0.11450288 10.99235832 1.81835707 12.29560351 5 15 C7.23003121 14.17221913 7.23003121 14.17221913 7.8125 11.75 C8.05546961 8.18644571 7.2195533 6.75530754 5 4 C2.96756452 3.03122943 2.96756452 3.03122943 1 3 Z M14 3 C11.79045494 5.07139596 11.79045494 5.07139596 10 8 C10.13986273 11.73723433 10.13986273 11.73723433 11 15 C14.65316671 13.75023244 15.78065836 13.32901247 18 10 C18.16699232 6.87478167 18.16699232 6.87478167 18 4 C16.68 3.67 15.36 3.34 14 3 Z M21 6 C20.67 6.99 20.34 7.98 20 9 C20.99 8.67 21.98 8.34 23 8 C22.34 7.34 21.68 6.68 21 6 Z M-4 7 C-3 9 -3 9 -3 9 Z M-9 11 C-9.33 11.99 -9.66 12.98 -10 14 C-8.27265813 16.68697624 -6.96827628 18.57637913 -4 19.875 C-1.78660115 20.01333743 -0.10359609 19.67615589 2 19 C0.74426756 15.1281583 -0.36808079 12.97161329 -4 11 C-6.66761764 10.74875174 -6.66761764 10.74875174 -9 11 Z M19.25 12.6875 C17.05678401 14.94163866 16.32781157 15.94042532 16 19 C18.97056826 20.25677888 20.06866612 19.9757649 23.1875 18.875 C26.2175342 17.27439336 26.2175342 17.27439336 26.875 14.3125 C26.91625 13.549375 26.9575 12.78625 27 12 C23.52396182 10.80821548 22.45602474 10.72016664 19.25 12.6875 Z M5.25 19.5 C4.8375 19.995 4.425 20.49 4 21 C4.62533375 23.52363988 4.62533375 23.52363988 6 26 C8.44539786 27.07272562 8.44539786 27.07272562 11 27 C13.2491908 25.17296773 13.2491908 25.17296773 13.25 22.5 C13.2491908 19.82703227 13.2491908 19.82703227 11 18 C7.12202338 17.56613908 7.12202338 17.56613908 5.25 19.5 Z M-10.9375 23.5 C-11.288125 23.995 -11.63875 24.49 -12 25 C-11.34 26.32 -10.68 27.64 -10 29 C-6.66799815 29.41771804 -6.66799815 29.41771804 -3 29 C-0.52791204 26.64167228 -0.52791204 26.64167228 1 24 C-2.86561316 21.42292456 -7.02012965 20.46719715 -10.9375 23.5 Z M18.125 23.5 C17.75375 23.995 17.3825 24.49 17 25 C18.55901182 27.14579161 18.55901182 27.14579161 21 29 C24.6675213 29.33417929 24.6675213 29.33417929 28 29 C28.66 27.68 29.32 26.36 30 25 C27.58330297 22.76920274 26.24984673 22.03059348 22.9375 21.625 C19.98842933 21.74235513 19.98842933 21.74235513 18.125 23.5 Z M-4 32 C-4.89592083 35.59919423 -4.89592083 35.59919423 -5 39 C-4.01 39.33 -3.02 39.66 -2 40 C0.77693597 38.58018323 0.77693597 38.58018323 3 36 C3.89055736 32.35817665 3.89055736 32.35817665 4 29 C0.27472933 29 -1.12075508 29.65114231 -4 32 Z M14 29 C14.16444261 34.52190131 14.16444261 34.52190131 16.8125 39.0625 C19.37782775 40.16192618 20.44138709 40.00516936 23 39 C23.36116409 35.74952319 23.30929204 34.41238939 21.3125 31.75 C18.79937138 29.84817294 17.10096781 29.34455198 14 29 Z M7 32 C5.24717475 34.68079156 4.98688864 35.86888639 5.3125 39.125 C5.86634334 41.92179558 5.86634334 41.92179558 7 44 C8.96756452 43.96877057 8.96756452 43.96877057 11 43 C12.6039603 40.27242264 12.6039603 40.27242264 13 37 C11.97122608 34.08919881 11.97122608 34.08919881 10 32 C9.01 32 8.02 32 7 32 Z " fill="#835324" transform="translate(741,28)"/>
<path d="M0 0 C1.875 2.5625 1.875 2.5625 3 5 C3.66 4.67 4.32 4.34 5 4 C8 3.8125 8 3.8125 11 4 C13 6 13 6 13.1875 9 C13 12 13 12 12 14 C12.763125 14.061875 13.52625 14.12375 14.3125 14.1875 C17 15 17 15 18.8125 17.5625 C19.4003125 18.7690625 19.4003125 18.7690625 20 20 C18.47793991 22.62901288 17.15634036 24.84365964 15 27 C15.66 27.99 16.32 28.98 17 30 C16.8125 33.5625 16.8125 33.5625 16 37 C15.01 37.66 14.02 38.32 13 39 C12.27617533 41.05925139 12.27617533 41.05925139 12 43 C11.4225 42.7525 10.845 42.505 10.25 42.25 C9.5075 42.1675 8.765 42.085 8 42 C7.360625 42.66 6.72125 43.32 6.0625 44 C5.381875 44.66 4.70125 45.32 4 46 C0.58394108 45.82919705 -2.03387957 44.64784469 -5 43 C-5.556875 43.515625 -6.11375 44.03125 -6.6875 44.5625 C-9 46 -9 46 -11.625 45.8125 C-14 45 -14 45 -16 43 C-18.10820797 43.3185177 -18.10820797 43.3185177 -20 44 C-20.33 42.68 -20.66 41.36 -21 40 C-20.360625 39.87625 -19.72125 39.7525 -19.0625 39.625 C-18.381875 39.41875 -17.70125 39.2125 -17 39 C-16.67 38.34 -16.34 37.68 -16 37 C-17.11375 37.3403125 -17.11375 37.3403125 -18.25 37.6875 C-21 38 -21 38 -23.3125 36.5625 C-24.1478125 35.7890625 -24.1478125 35.7890625 -25 35 C-24.125 28.25 -24.125 28.25 -23 26 C-23.639375 25.5875 -24.27875 25.175 -24.9375 24.75 C-27 23 -27 23 -28.0625 21.125 C-28 19 -28 19 -25.75 16.25 C-23 14 -23 14 -20 14 C-20.33 13.34 -20.66 12.68 -21 12 C-21.1875 9 -21.1875 9 -21 6 C-19 4 -19 4 -15.5 3.875 C-13.7675 3.936875 -13.7675 3.936875 -12 4 C-11.34 4 -10.68 4 -10 4 C-9.71125 3.360625 -9.4225 2.72125 -9.125 2.0625 C-6.899191 -2.01814984 -4.05298245 -1.15799499 0 0 Z M-6 2 C-7.29614601 5.24184142 -7.29614601 5.24184142 -8 9 C-6.77401355 11.90924342 -6.77401355 11.90924342 -5 14 C-2.96758273 13.36020151 -2.96758273 13.36020151 -1 12 C0.09616096 9.68805807 0.09616096 9.68805807 0 7 C-1.1191794 4.16140195 -1.1191794 4.16140195 -3 2 C-3.99 2 -4.98 2 -6 2 Z M-17 6 C-17.33 6.33 -17.66 6.66 -18 7 C-17.98407238 10.44892109 -17.98407238 10.44892109 -17 14 C-14.12075508 16.34885769 -12.72527067 17 -9 17 C-9.340127 12.29163018 -9.340127 12.29163018 -11.3125 8.125 C-13.22071683 6.85285545 -14.72953544 6.30272861 -17 6 Z M6 6 C2.15338093 9.87033288 2.15338093 9.87033288 0.6875 14.875 C0.790625 15.57625 0.89375 16.2775 1 17 C4.10096781 16.65544802 5.79937138 16.15182706 8.3125 14.25 C10.30929204 11.58761061 10.36116409 10.25047681 10 7 C8.68 6.67 7.36 6.34 6 6 Z M-23 17 C-23.66 18.32 -24.32 19.64 -25 21 C-22.58330297 23.23079726 -21.24984673 23.96940652 -17.9375 24.375 C-14.98842933 24.25764487 -14.98842933 24.25764487 -13.125 22.5 C-12.75375 22.005 -12.3825 21.51 -12 21 C-13.55901182 18.85420839 -13.55901182 18.85420839 -16 17 C-19.6675213 16.66582071 -19.6675213 16.66582071 -23 17 Z M5.5625 19.5 C5.046875 20.325 4.53125 21.15 4 22 C7.48868651 24.32579101 8.89718519 24.41865457 13 24 C15.34261608 22.62073227 15.34261608 22.62073227 17 21 C16.34 19.68 15.68 18.36 15 17 C9.66755957 16.39524561 9.66755957 16.39524561 5.5625 19.5 Z M-6 19 C-8.2491908 20.82703227 -8.2491908 20.82703227 -8.25 23.5 C-8.2491908 26.17296773 -8.2491908 26.17296773 -6 28 C-2.69316534 27.71016731 -2.69316534 27.71016731 0 26 C0.2500773 23.54190002 0.2500773 23.54190002 0 21 C-0.66 20.34 -1.32 19.68 -2 19 C-3.32 19 -4.64 19 -6 19 Z M-20 28 C-21.9354148 30.39056942 -21.9354148 30.39056942 -23 33 C-22.67 33.66 -22.34 34.32 -22 35 C-16.689958 34.69750834 -16.689958 34.69750834 -12.5625 31.5625 C-10.82646419 29.21561824 -10.82646419 29.21561824 -11 27 C-14.61792602 25.6600274 -16.65906623 26.1153707 -20 28 Z M3 27 C4.60125535 31.64733542 4.60125535 31.64733542 8 35 C11.12549017 35.25048636 11.12549017 35.25048636 14 35 C14.33 34.01 14.66 33.02 15 32 C13.10996894 28.9468729 11.87701442 27.29946834 8.4375 26.125 C5.85955442 25.84437111 5.85955442 25.84437111 3 27 Z M-10.625 33.125 C-13.29479824 35.80875435 -13.29479824 35.80875435 -13.3125 39.3125 C-13.209375 40.199375 -13.10625 41.08625 -13 42 C-11.68 42.33 -10.36 42.66 -9 43 C-6.79045494 40.92860404 -6.79045494 40.92860404 -5 38 C-5.13986273 34.26276567 -5.13986273 34.26276567 -6 31 C-8.30380405 30.79026726 -8.30380405 30.79026726 -10.625 33.125 Z M-2 31 C-2.86013727 34.26276567 -2.86013727 34.26276567 -3 38 C-1.20954506 40.92860404 -1.20954506 40.92860404 1 43 C2.32 42.67 3.64 42.34 5 42 C5.41890218 39.21061788 5.41890218 39.21061788 5 36 C2.7495803 33.08209475 2.7495803 33.08209475 0 31 C-0.66 31 -1.32 31 -2 31 Z M8 37 C8.33 37.66 8.66 38.32 9 39 C9.33 38.34 9.66 37.68 10 37 C9.34 37 8.68 37 8 37 Z M10 39 C10 39.99 10 40.98 10 42 C10.66 41.34 11.32 40.68 12 40 C11.34 39.67 10.68 39.34 10 39 Z M-19 40 C-19 40.99 -19 41.98 -19 43 C-18.34 42.34 -17.68 41.68 -17 41 C-17.66 40.67 -18.32 40.34 -19 40 Z " fill="#835424" transform="translate(172,29)"/>
<path d="M0 0 C0.80066895 0.00931549 1.60133789 0.01863098 2.42626953 0.02822876 C5.05627049 0.06243229 7.68532652 0.11835345 10.31494141 0.17456055 C12.14480616 0.20261143 13.97469226 0.22929994 15.80459595 0.25468445 C20.60855559 0.32497359 25.4120023 0.41371786 30.21557617 0.50634766 C35.12221991 0.59768503 40.02912394 0.67151207 44.93603516 0.74682617 C54.55485948 0.89703617 64.1732328 1.06675004 73.79150391 1.2487793 C73.81044657 3.01232822 73.82397369 4.77593589 73.83520508 6.53955078 C73.84737312 8.01269997 73.84737312 8.01269997 73.85978699 9.51560974 C73.78004149 12.70758581 73.19510503 15.31398569 72.10400391 18.3112793 C71.75466797 19.31803711 71.40533203 20.32479492 71.04541016 21.36206055 C69.79150391 24.2487793 69.79150391 24.2487793 68.13134766 26.66674805 C66.31353694 29.33316819 65.2995545 31.04143379 64.79150391 34.2487793 C66.04052892 38.60722521 68.37755319 42.44081048 70.67041016 46.3190918 C74.45772835 52.92102 74.82555394 58.77992039 74.79150391 66.2487793 C64.43805476 66.47311564 54.08443026 66.67444549 43.72998428 66.84717941 C38.92092669 66.92811122 34.11227324 67.01668034 29.30371094 67.12329102 C24.65492965 67.22606838 20.00618747 67.30801635 15.35677338 67.37610626 C13.59142168 67.4055094 11.82617392 67.44215913 10.06113434 67.4865036 C-1.33675032 67.76694287 -11.70906994 67.70266159 -21.49755859 60.99487305 C-22.26841797 60.23303711 -23.03927734 59.47120117 -23.83349609 58.6862793 C-24.63013672 57.92186523 -25.42677734 57.15745117 -26.24755859 56.36987305 C-28.20849609 54.2487793 -28.20849609 54.2487793 -30.20849609 51.2487793 C-27.10234401 52.62475018 -25.0942959 54.22751545 -22.70849609 56.6237793 C-12.74724514 65.3486995 -0.23224834 64.85200425 12.24462891 64.8581543 C13.99869288 64.87316463 15.75274286 64.88989768 17.5067749 64.90826416 C22.083483 64.95163008 26.66000056 64.97186785 31.23687744 64.98699951 C35.92316818 65.00668252 40.60925644 65.04863929 45.29541016 65.08862305 C54.4607118 65.1635912 63.6259674 65.21408386 72.79150391 65.2487793 C72.33503461 62.84193155 71.87215032 60.4366179 71.40551758 58.03173828 C71.2777166 57.35424278 71.14991562 56.67674728 71.01824188 55.97872162 C70.01843813 50.86538403 68.59121377 46.86334262 66.10400391 42.3112793 C65.78367187 41.7112207 65.46333984 41.11116211 65.13330078 40.49291992 C64.36997813 39.06881049 63.58355581 37.65711268 62.79150391 36.2487793 C62.33001953 36.75666992 61.86853516 37.26456055 61.39306641 37.7878418 C51.51767896 48.20969337 37.83230506 55.9198955 23.21728516 56.3190918 C15.74407506 55.92998132 10.65808032 53.19283075 5.47900391 47.8737793 C1.12091126 41.09452407 -0.42813904 35.32165405 0.79150391 27.2487793 C3.05387593 21.30628213 7.19823831 17.15680837 12.79150391 14.2487793 C22.40332629 10.60291563 32.85334505 12.24933338 42.22509766 16.0144043 C49.98471499 19.74657945 56.76765958 25.13686707 62.79150391 31.2487793 C66.97937221 23.2286164 70.46671277 16.13077871 71.33447266 7.0378418 C71.42108154 6.1401709 71.50769043 5.2425 71.59692383 4.31762695 C71.69324097 3.29354736 71.69324097 3.29354736 71.79150391 2.2487793 C61.58503573 2.21715254 51.3793445 2.22362103 41.17294788 2.27724552 C36.43237951 2.30098713 31.69251033 2.31214954 26.9519043 2.29345703 C22.36729242 2.27586089 17.78392947 2.29275337 13.19946861 2.33245659 C11.46022373 2.34167146 9.72086885 2.33895605 7.98166847 2.32347298 C-4.73893578 2.22133104 -14.20049205 3.68627994 -23.92033386 12.78822327 C-28.31700502 17.51614666 -31.12358018 21.87499018 -31.60302734 28.34643555 C-32.82308897 43.09605592 -35.36314669 53.40342989 -46.20849609 64.2487793 C-41.25849609 64.2487793 -36.30849609 64.2487793 -31.20849609 64.2487793 C-32.85849609 61.9387793 -34.50849609 59.6287793 -36.20849609 57.2487793 C-33.20849609 57.2487793 -33.20849609 57.2487793 -31.38427734 58.9987793 C-30.76939453 59.7412793 -30.15451172 60.4837793 -29.52099609 61.2487793 C-28.89837891 61.9912793 -28.27576172 62.7337793 -27.63427734 63.4987793 C-26.92851563 64.3650293 -26.92851563 64.3650293 -26.20849609 65.2487793 C-26.53849609 65.9087793 -26.86849609 66.5687793 -27.20849609 67.2487793 C-38.59349609 66.7537793 -38.59349609 66.7537793 -50.20849609 66.2487793 C-50.20849609 65.5887793 -50.20849609 64.9287793 -50.20849609 64.2487793 C-49.45955078 63.65838867 -48.71060547 63.06799805 -47.93896484 62.4597168 C-45.0673352 60.13447734 -43.46688656 57.99594961 -41.52099609 54.8737793 C-40.93962891 53.95854492 -40.35826172 53.04331055 -39.75927734 52.1003418 C-36.10468348 45.38030773 -35.66022116 38.89418881 -35.17333984 31.4128418 C-34.48093951 23.26080767 -31.41940577 15.82415403 -25.20849609 10.2487793 C-21.65351137 7.71571678 -17.9955352 5.41805412 -14.20849609 3.2487793 C-13.32970795 2.72563644 -12.4509198 2.20249359 -11.54550171 1.66349792 C-7.58360411 -0.01614274 -4.21738194 -0.1139625 0 0 Z M6.72900391 21.3112793 C2.80661555 26.26733234 2.32455992 29.68660497 2.38525391 35.9987793 C3.13189812 41.97193302 5.98102075 46.67079353 10.39697266 50.72143555 C16.94957533 55.0638967 24.68416997 54.68978444 32.10400391 53.2487793 C42.39836355 50.57807279 52.64686608 45.29352897 59.79150391 37.2487793 C60.98574145 35.13850132 60.98574145 35.13850132 61.79150391 33.2487793 C53.84379184 22.59625147 42.22173873 16.55427593 29.28369141 14.56518555 C20.6650894 13.47097432 12.6914148 14.55142661 6.72900391 21.3112793 Z " fill="#805222" transform="translate(824.20849609375,17.751220703125)"/>
<path d="M0 0 C10.87520845 -0.13956099 21.75020079 -0.24590427 32.62612534 -0.31087303 C37.67734355 -0.34206893 42.72794516 -0.38432498 47.77880859 -0.45263672 C52.66126743 -0.51825096 57.54313649 -0.55379415 62.4260025 -0.56926346 C64.28062462 -0.58027483 66.13521767 -0.60177635 67.98958588 -0.63438034 C80.04922928 -0.83781368 89.75623877 -0.2772516 99.33685303 8.02505493 C100.98799625 9.62165169 102.52331305 11.24253454 104 13 C103.67 13.66 103.34 14.32 103 15 C102.5875 14.54109375 102.175 14.0821875 101.75 13.609375 C94.91895612 6.35139088 87.25334062 2.45337645 77.15907288 1.7215271 C75.7572991 1.69832121 74.35532856 1.68539666 72.95336914 1.68115234 C72.18181488 1.67110672 71.41026062 1.6610611 70.61532593 1.65071106 C68.08860964 1.62004905 65.56199847 1.60289165 63.03515625 1.5859375 C61.27395229 1.56721215 59.51275718 1.54763773 57.75157166 1.5272522 C53.1337507 1.47606933 48.5159007 1.43636977 43.89794922 1.39910889 C39.17863869 1.35898215 34.45944752 1.30792947 29.74023438 1.2578125 C20.49357361 1.16121728 11.24684522 1.07676031 2 1 C2.30422227 2.92441996 2.61305175 4.84811197 2.92382812 6.77148438 C3.09531372 7.84281616 3.26679932 8.91414795 3.44348145 10.01794434 C4.07540119 13.40403062 5.08603526 16.36168802 6.5 19.5 C6.9228125 20.4590625 7.345625 21.418125 7.78125 22.40625 C8.82242171 24.62207696 9.88873396 26.81862592 11 29 C14.25947848 27.57623667 16.31430047 25.82055436 18.8125 23.3125 C28.22259436 14.78751352 41.333709 9.53145555 54.0625 10 C60.49756487 10.88026831 65.61285433 13.98046014 69.63671875 19.0703125 C73.67562771 25.34277283 74.59293805 30.5940875 74 38 C72.13045189 44.23182704 67.15521934 48.30077036 62 52 C54.88346556 55.68196976 45.47947255 54.13904901 38.03515625 52.24609375 C27.38309156 48.67548581 18.8078071 41.92469044 11 34 C10.71125 34.72316406 10.4225 35.44632813 10.125 36.19140625 C9.42748981 37.93275982 8.72088288 39.67053527 8 41.40234375 C5.90726254 46.7077602 4.62346751 51.71527935 3.875 57.37890625 C3.70742188 58.62357666 3.53984375 59.86824707 3.3671875 61.15063477 C3.24601562 62.09092529 3.12484375 63.03121582 3 64 C13.20646818 64.03162676 23.41215941 64.02515827 33.61855602 63.97153378 C38.3591244 63.94779216 43.09899357 63.93662975 47.83959961 63.95532227 C52.42421148 63.97291841 57.00757443 63.95602593 61.59203529 63.91632271 C63.33128017 63.90710783 65.07063506 63.90982325 66.80983543 63.92530632 C79.44258258 64.0267428 88.86587719 62.58202512 98.58097839 53.61875916 C104.84451405 47.13299872 106.1289429 41.07791635 106.8125 32.375 C108.06094685 19.63851584 111.96777724 11.18531128 121 2 C115.72 2 110.44 2 105 2 C106.65 3.65 108.3 5.3 110 7 C109.67 7.99 109.34 8.98 109 10 C107.66370254 8.52351062 106.33103329 7.0437367 105 5.5625 C104.2575 4.73878906 103.515 3.91507813 102.75 3.06640625 C101 1 101 1 101 0 C108.92 0 116.84 0 125 0 C123.02 2.31 121.04 4.62 119 7 C112.67222802 15.64381924 110.18307655 24.57024469 109.5625 35.1875 C108.89058739 44.56984331 105.42272114 50.11619017 98.90234375 56.76171875 C87.83699035 65.29529546 79.04691052 65.82544496 65.55078125 65.5859375 C63.68321607 65.57472692 61.81563307 65.56619555 59.94804382 65.56021118 C55.0666814 65.53745919 50.18641471 65.47865606 45.30548096 65.4119873 C40.31122657 65.35026823 35.31679263 65.3231333 30.32226562 65.29296875 C20.54769945 65.22889751 10.77394135 65.12668621 1 65 C0.96762975 63.27226153 0.94476644 61.54434364 0.92578125 59.81640625 C0.91200439 58.85420166 0.89822754 57.89199707 0.8840332 56.90063477 C1.21814498 48.54362007 5.1297432 41.23932926 9 34 C9.33 33.34 9.66 32.68 10 32 C8.79716753 29.37752823 7.54238144 26.85490866 6.1875 24.3125 C2.70400698 17.75283338 -0.12809196 11.87730964 -0.04614258 4.27856445 C-0.03948074 3.47522171 -0.03281891 2.67187897 -0.0259552 1.8441925 C-0.01738998 1.23560898 -0.00882477 0.62702545 0 0 Z M15.86328125 27.94921875 C13.79161704 29.95197619 13.79161704 29.95197619 13 33 C19.4071829 42.72124302 30.96657726 48.8059346 42.125 51.25 C49.81390663 52.56302867 56.87679187 52.47612557 64 49 C67.70198847 45.72645142 71.65591139 41.8313577 72.2734375 36.75 C72.5429702 29.45188384 71.40013013 23.94178156 67 18 C62.64568514 13.80016194 57.73978092 12.17320103 51.76171875 11.87109375 C37.7126535 12.52684927 26.03578109 18.55547488 15.86328125 27.94921875 Z " fill="#825222" transform="translate(19,19)"/>
<path d="M0 0 C7.92221312 5.36614836 13.68791848 11.7698482 17.32421875 20.6953125 C18.90605865 29.86998394 18.42900322 38.00755736 13.94921875 46.3203125 C9.50534329 52.41133872 4.81026381 57.15367632 -2.05078125 60.3203125 C-2.78296875 60.67351562 -3.51515625 61.02671875 -4.26953125 61.390625 C-11.24664452 63.7228623 -21.25739517 63.52504844 -28.05078125 60.7578125 C-37.04997685 55.85539357 -43.57028935 48.40879261 -47.42578125 38.9453125 C-49.00650662 29.77710533 -48.53799775 21.6246545 -44.05078125 13.3203125 C-33.8959885 -0.36071757 -16.48768855 -8.98186462 0 0 Z M-40.05078125 10.3203125 C-45.55229815 19.18007545 -47.66407257 27.82929737 -45.4375 38.16796875 C-42.97751614 45.87302834 -38.74672555 52.29850164 -31.859375 56.73046875 C-23.13587869 61.21270718 -12.98588836 62.12751927 -3.57421875 59.26171875 C5.1266598 55.1976375 10.72457599 49.90339804 14.38671875 41.0078125 C17.16612894 32.28455542 16.78498869 24.44426738 13.33984375 15.96484375 C8.69639205 7.13445948 2.26982823 2.42718233 -7.05078125 -0.6796875 C-20.37173459 -1.59269666 -30.80261532 -0.33824911 -40.05078125 10.3203125 Z " fill="#815121" transform="translate(183.05078125,21.6796875)"/>
<path d="M0 0 C8.67511783 5.04285305 13.78919075 11.06044068 17.4375 20.4375 C19.62343851 29.44412006 18.8943339 38.53993186 14.1484375 46.63671875 C8.97503439 53.89884879 2.26654155 60.23333535 -6.5625 62.4375 C-16.68927564 63.45328712 -25.38386963 63.11861673 -33.73828125 56.7890625 C-41.76559998 50.06783402 -46.47327389 43.01211824 -47.98828125 32.4765625 C-48.39727399 23.57220634 -46.03805678 15.85793249 -40.5078125 8.82421875 C-29.94833348 -2.3381371 -14.28312813 -6.79804579 0 0 Z M-39.5625 10.4375 C-44.79848922 18.98658413 -46.51805846 26.4315948 -45.5625 36.4375 C-43.25273004 45.12762105 -39.2356116 52.03154349 -31.44140625 56.7109375 C-22.63983182 61.26514666 -12.62695289 62.28409183 -3.0859375 59.37890625 C4.75342736 55.71722823 10.67034462 50.69024396 14.3125 42.75 C17.47675629 33.43302315 17.36824831 24.54568919 13.4375 15.4375 C8.76665702 7.63933974 2.32619834 1.82078984 -6.5625 -0.5625 C-19.73057703 -1.90755383 -30.54265095 0.02242376 -39.5625 10.4375 Z " fill="#815221" transform="translate(764.5625,21.5625)"/>
<path d="M0 0 C1.8871875 0.0309375 1.8871875 0.0309375 3.8125 0.0625 C2.85996853 2.00158193 1.89922416 3.91344284 0.8125 5.78125 C-3.8687204 14.11967385 -5.08724843 23.13643195 -3.02734375 32.453125 C-1.66321439 36.6914432 0.48490365 40.29507642 2.8125 44.0625 C3.49292336 45.38886581 4.16391057 46.72028021 4.8125 48.0625 C-0.26363871 49.73902288 -4.43119212 48.14383172 -9.1875 46.0625 C-15.45467902 41.94593007 -20.71991478 36.17625968 -22.81640625 28.87109375 C-23.92136707 22.18317297 -22.53544604 16.39812108 -18.63671875 10.859375 C-13.62125226 4.85416013 -8.2211928 -0.13477365 0 0 Z M-15.5 9.25 C-19.54483987 14.4331418 -21.56233539 20.02562542 -21.1875 26.625 C-20.15982047 32.95683193 -16.84740427 37.32539089 -12.5 41.875 C-8.2759291 44.66448078 -4.07211702 45.87513262 0.8125 47.0625 C0.8125 43.36854303 -0.34211121 41.71758988 -2.125 38.5 C-6.68988988 29.53209576 -7.16218712 21.67543628 -4.1875 12.0625 C-3.01193265 9.29482568 -1.66801801 6.67744091 -0.1875 4.0625 C0.1425 3.4025 0.4725 2.7425 0.8125 2.0625 C-5.68126154 1.25077981 -11.18895135 4.6386793 -15.5 9.25 Z " fill="#805020" transform="translate(821.1875,27.9375)"/>
<path d="M0 0 C10.19772037 0.88600296 15.87269185 4.37571673 22.484375 12 C26.96972894 17.91881758 26.6848345 23.77022824 26 31 C24.2854314 37.2627955 20.00127167 42.01164411 15 46 C9.74866018 48.95984608 5.86197489 49.30852499 0 49 C0.95799683 47.05406895 1.92550163 45.13066315 3 43.24609375 C7.70530402 34.7361103 8.72945304 26.3769859 6.83984375 16.8671875 C5.55192114 12.4702796 3.42298102 8.85191855 1 5 C0.31864196 3.67411409 -0.352585 2.34278667 -1 1 C-0.67 0.67 -0.34 0.34 0 0 Z M1 2 C1.40992187 2.65226562 1.81984375 3.30453125 2.2421875 3.9765625 C2.78101562 4.85054687 3.31984375 5.72453125 3.875 6.625 C4.40867187 7.48351563 4.94234375 8.34203125 5.4921875 9.2265625 C9.9474827 17.42153554 10.60869678 27.05844538 8.171875 36.05859375 C7.21942482 38.45038095 6.19052969 40.7188756 5 43 C4.43925781 44.12341797 4.43925781 44.12341797 3.8671875 45.26953125 C3.58101563 45.84058594 3.29484375 46.41164062 3 47 C10.40582472 46.48925347 14.27406813 44.66253811 19.6875 39.375 C23.29198204 34.71726022 25.15231959 29.23679132 24.875 23.34375 C23.65536026 16.11302868 20.67890696 10.73355425 14.8515625 6.1015625 C10.83857414 3.71408841 5.69589939 2 1 2 Z " fill="#805221" transform="translate(93,26)"/>
<path d="M0 0 C2.6904702 2.6904702 2.6919788 4.83802555 3.375 8.5625 C4.83808486 15.79622921 6.90658582 21.85987872 11 28 C10.80777406 31.363954 9.59751849 33.88044222 8.0625 36.8125 C4.40120643 43.90957269 3.61430395 51.11104398 3 59 C2.01 58.34 1.02 57.68 0 57 C-0.36076355 54.59555054 -0.36076355 54.59555054 -0.34057617 51.54052734 C-0.34034958 50.39949554 -0.34012299 49.25846375 -0.33988953 48.08285522 C-0.32440567 46.84637238 -0.30892181 45.60988953 -0.29296875 44.3359375 C-0.28872391 43.07359283 -0.28447906 41.81124817 -0.28010559 40.51065063 C-0.26613137 37.15338649 -0.23917302 33.79673068 -0.20599365 30.43963623 C-0.17531352 27.01449852 -0.1616047 23.58929799 -0.14648438 20.1640625 C-0.11334641 13.4425395 -0.06309539 6.72130489 0 0 Z M2 16 C2 25.57 2 35.14 2 45 C5.36352931 39.95470603 8.32892017 34.85918031 10 29 C9.10153483 25.61596055 7.27830902 23.58982044 5 21 C4.28050817 19.35544725 3.58353604 17.6975594 3 16 C2.67 16 2.34 16 2 16 Z " fill="#7E511E" transform="translate(9,21)"/>
<path d="M0 0 C14.52 0 29.04 0 44 0 C44 0.66 44 1.32 44 2 C43.24976563 2.08636719 42.49953125 2.17273438 41.7265625 2.26171875 C31.5962413 3.65240516 23.77540702 6.67612961 16.47265625 13.9609375 C15.98667969 14.30382813 15.50070313 14.64671875 15 15 C11.60459566 13.86819855 10.84642148 12.89642801 8.625 10.1875 C5.97272286 7.03968063 3.2375973 4.55083424 0 2 C0 1.34 0 0.68 0 0 Z M4 2 C7.43469325 6.15358254 10.63270466 9.78875342 15 13 C15.4125 12.61328125 15.825 12.2265625 16.25 11.828125 C20.5586764 7.94262217 24.7225368 5.40726392 30 3 C30 2.67 30 2.34 30 2 C25.38 2 20.76 2 16 2 C16.33 3.65 16.66 5.3 17 7 C16.01 7.495 16.01 7.495 15 8 C14.34 7.67 13.68 7.34 13 7 C13 4 13 4 15 2 C11.37 2 7.74 2 4 2 Z " fill="#805223" transform="translate(195,10)"/>
<path d="M0 0 C3.39540434 1.13180145 4.15357852 2.10357199 6.375 4.8125 C9.02727714 7.96031937 11.7624027 10.44916576 15 13 C15 13.66 15 14.32 15 15 C0.48 15 -14.04 15 -29 15 C-29 14.34 -29 13.68 -29 13 C-27.96552734 12.85304688 -27.96552734 12.85304688 -26.91015625 12.703125 C-16.5108527 11.04836614 -7.58151359 7.58151359 0 0 Z M0 2 C-0.4125 2.38671875 -0.825 2.7734375 -1.25 3.171875 C-5.5586764 7.05737783 -9.7225368 9.59273608 -15 12 C-15 12.33 -15 12.66 -15 13 C-6.42 13 2.16 13 11 13 C5.8365006 6.91415945 5.8365006 6.91415945 0 2 Z " fill="#805322" transform="translate(708,78)"/>
<path d="M0 0 C3.06583403 1.72732021 5.40227558 3.80455115 7 7 C7.53118173 10.79415519 7.85089348 14.46331178 5.953125 17.890625 C3.63400553 20.70085213 1.72015775 22.75917792 -1.953125 23.2734375 C-6.03444083 23.45390385 -9.08843909 23.45963229 -12.4375 20.9375 C-15.41162579 17.52813629 -16.45793384 15.49140529 -17 11 C-15.87094426 7.08151242 -14.54731678 4.62780454 -11.875 1.5625 C-7.85772085 -0.62080389 -4.47391983 -0.9356704 0 0 Z M-14 7 C-15.50798772 10.58147084 -15.01855652 11.94525826 -13.75 15.6875 C-12.2388208 19.1849837 -12.2388208 19.1849837 -9 21 C-4.33511124 21.82989594 -0.96705735 21.61181179 3.0625 19.0625 C5.669717 14.94141507 6.03945854 11.75058323 5 7 C3.25 3.75 3.25 3.75 0 2 C-6.23455172 0.6358395 -10.18348085 1.63301995 -14 7 Z " fill="#7F5021" transform="translate(851,40)"/>
<path d="M0 0 C0 3 0 3 -1.57421875 4.61328125 C-2.27160156 5.17402344 -2.96898437 5.73476562 -3.6875 6.3125 C-6.3662019 8.5408007 -8.71585397 10.70128491 -10.875 13.4375 C-11.57625 14.283125 -12.2775 15.12875 -13 16 C-13.66 16 -14.32 16 -15 16 C-15.61875 15.29875 -16.2375 14.5975 -16.875 13.875 C-22.89234095 7.64465583 -31.72912347 4.5482514 -40.13671875 3.421875 C-40.75160156 3.28265625 -41.36648438 3.1434375 -42 3 C-42.33 2.34 -42.66 1.68 -43 1 C-28.81 0.67 -14.62 0.34 0 0 Z M-32 2 C-29.6094991 3.59366727 -27.27350653 4.95810052 -24.75 6.3125 C-20.58756228 8.60150012 -16.80794179 11.16429867 -13 14 C-12.45730469 13.38511719 -11.91460938 12.77023438 -11.35546875 12.13671875 C-10.64003906 11.32847656 -9.92460938 10.52023438 -9.1875 9.6875 C-8.47980469 8.88699219 -7.77210938 8.08648437 -7.04296875 7.26171875 C-5.41452983 5.45891543 -3.71783485 3.71783485 -2 2 C-11.9 2 -21.8 2 -32 2 Z " fill="#825322" transform="translate(722,10)"/>
<path d="M0 0 C0.72703125 0.58007812 0.72703125 0.58007812 1.46875 1.171875 C10.291334 8.0263441 18.84781493 11.84632568 30 13 C30 13.66 30 14.32 30 15 C15.48 15 0.96 15 -14 15 C-11.08246075 11.35307594 -8.312499 8.23170634 -5 5 C-3.6078125 3.6078125 -3.6078125 3.6078125 -2.1875 2.1875 C-1.1046875 1.1046875 -1.1046875 1.1046875 0 0 Z M0 2 C-0.68835938 2.79664062 -0.68835938 2.79664062 -1.390625 3.609375 C-2.00421875 4.31578125 -2.6178125 5.0221875 -3.25 5.75 C-3.85328125 6.44609375 -4.4565625 7.1421875 -5.078125 7.859375 C-6.97784917 9.97532794 -8.98925278 11.98925278 -11 14 C-1.1 14 8.8 14 19 14 C16.6094991 12.40633273 14.27350653 11.04189948 11.75 9.6875 C7.58756228 7.39849988 3.80794179 4.83570133 0 2 Z " fill="#815322" transform="translate(209,77)"/>
<path d="M0 0 C3.07469523 1.70251719 5.40613254 3.81226508 7 7 C7.53118173 10.79415519 7.85089348 14.46331178 5.953125 17.890625 C3.63400553 20.70085213 1.72015775 22.75917792 -1.953125 23.2734375 C-6.24672199 23.46329043 -9.09582964 23.4342668 -12.5 20.625 C-16.13542732 16.80780131 -16.39236502 14.44157848 -16.359375 9.328125 C-15.75455722 5.40995764 -13.83123243 3.69641184 -11 1 C-7.51556578 -0.74221711 -3.80112955 -0.58675154 0 0 Z M-12 4 C-14.54370988 8.00827012 -15.14379528 10.04136482 -14.4375 14.75 C-12.94848775 18.11646248 -12.22620559 19.34080855 -9 21 C-5.55253957 22.30444449 -3.98493606 21.99584443 -0.375 21 C3.20155912 19.22500725 3.20155912 19.22500725 5.0625 15.75 C6.17412914 11.30348342 5.84349129 9.16789335 4 5 C-1.00003308 -0.17244802 -6.09924769 0.50325789 -12 4 Z " fill="#825223" transform="translate(76,40)"/>
<path d="M0 0 C4.58682606 5.62256097 5.11470449 7.88832156 5 15 C4.34 15 3.68 15 3 15 C2.34 11.04 1.68 7.08 1 3 C-0.37671875 3.92232422 -0.37671875 3.92232422 -1.78125 4.86328125 C-17.09589735 15 -17.09589735 15 -25 15 C-25 14.34 -25 13.68 -25 13 C-24.26136719 12.79246094 -23.52273438 12.58492187 -22.76171875 12.37109375 C-14.34418054 9.81481467 -6.31322088 6.31322088 0 0 Z " fill="#805120" transform="translate(886,63)"/>
<path d="M0 0 C9.75626089 0.4434664 18.45297957 6.16821149 26 12 C26.66 8.04 27.32 4.08 28 0 C28.66 0 29.32 0 30 0 C30.45356243 6.46326465 29.59378942 9.60931587 26 15 C25.46632813 14.62488281 24.93265625 14.24976563 24.3828125 13.86328125 C16.75030241 8.62088245 9.05927068 4.16634734 0 2 C0 1.34 0 0.68 0 0 Z " fill="#815220" transform="translate(861,25)"/>
<path d="M0 0 C0 3 0 3 -1.375 4.6875 C-3 6 -3 6 -5 6 C-5.66 7.32 -6.32 8.64 -7 10 C-7.99 10 -8.98 10 -10 10 C-5.25 4.125 -5.25 4.125 -3 3 C-8.61 3 -14.22 3 -20 3 C-18.329375 4.546875 -18.329375 4.546875 -16.625 6.125 C-13.52817798 9.1967972 -11.95336014 11.65691493 -11 16 C-11.66 16 -12.32 16 -13 16 C-13.53625 14.948125 -14.0725 13.89625 -14.625 12.8125 C-17.13855254 8.38685214 -20.40068361 5.29965819 -25 3 C-25 2.34 -25 1.68 -25 1 C-12.625 0.505 -12.625 0.505 0 0 Z " fill="#815320" transform="translate(798,18)"/>
<path d="M0 0 C2.96980684 1.42415737 5.71680724 3.05444991 8.5 4.8125 C14.07827161 8.20109186 19.92720892 10.64183714 26 13 C21.1527484 14.85811311 17.54939619 12.50300739 13.0546875 10.546875 C9.52243502 8.75816403 6.55114189 6.67258087 3.5234375 4.13671875 C2.04963877 2.80065823 2.04963877 2.80065823 0 3 C-1.485 8.445 -1.485 8.445 -3 14 C-3.66 13.67 -4.32 13.34 -5 13 C-4.74379316 11.3934324 -4.46944129 9.7897517 -4.1875 8.1875 C-4.03667969 7.29417969 -3.88585937 6.40085937 -3.73046875 5.48046875 C-2.94604607 2.81678744 -2.11372201 1.74309678 0 0 Z " fill="#815121" transform="translate(31,64)"/>
<path d="M0 0 C1.96301592 3.50538557 2.95902388 7.13351728 4 11 C8.48551107 8.85382245 12.67636061 6.22347544 16.9296875 3.65625 C24.22661801 -0.28000768 24.22661801 -0.28000768 28.375 0.375 C28.91125 0.58125 29.4475 0.7875 30 1 C29.24976562 1.29132812 28.49953125 1.58265625 27.7265625 1.8828125 C21.524914 4.36659616 15.80617278 7.09910086 10.15625 10.66796875 C8.14932199 11.9077558 6.12571534 12.98062287 4 14 C1.07162864 11.57041717 0.41929441 9.5777094 -0.25 5.875 C-0.42015625 4.98554688 -0.5903125 4.09609375 -0.765625 3.1796875 C-0.84296875 2.46039062 -0.9203125 1.74109375 -1 1 C-0.67 0.67 -0.34 0.34 0 0 Z " fill="#7F5122" transform="translate(27,25)"/>
<path d="M0 0 C3.02710893 2.91068167 5.74701185 6.001862 8.4375 9.21875 C10.20099803 11.22913775 12.10902351 13.10902351 14 15 C5.42 15 -3.16 15 -12 15 C-5.25 7.125 -5.25 7.125 -2 5 C-3.56960039 8.66240092 -4.93903646 9.93903646 -8 13 C-2.39 13 3.22 13 9 13 C7.329375 11.3603125 7.329375 11.3603125 5.625 9.6875 C3.40189623 7.50556482 1.74311992 5.61467988 0 3 C0 2.01 0 1.02 0 0 Z " fill="#835323" transform="translate(131,69)"/>
<path d="M0 0 C0.33 0 0.66 0 1 0 C1.33 6.93 1.66 13.86 2 21 C2.66 21.33 3.32 21.66 4 22 C3.67 26.62 3.34 31.24 3 36 C2.01 35.34 1.02 34.68 0 34 C-0.26697888 31.37537756 -0.34832984 28.98934067 -0.29296875 26.3671875 C-0.28872391 25.61535187 -0.28447906 24.86351624 -0.28010559 24.08889771 C-0.2632917 21.68390315 -0.22563624 19.27974191 -0.1875 16.875 C-0.17245659 15.24610584 -0.15876758 13.61719856 -0.14648438 11.98828125 C-0.11337954 7.99186566 -0.06158009 3.99607418 0 0 Z " fill="#69470F" transform="translate(9,44)"/>
<path d="M0 0 C9.57 0 19.14 0 29 0 C29 0.33 29 0.66 29 1 C24.05 1.33 19.1 1.66 14 2 C14.33 3.32 14.66 4.64 15 6 C14.01 6.66 13.02 7.32 12 8 C11.01 7.34 10.02 6.68 9 6 C9.33 4.68 9.66 3.36 10 2 C6.7 1.67 3.4 1.34 0 1 C0 0.67 0 0.34 0 0 Z " fill="#7B5200" transform="translate(198,11)"/>
<path d="M0 0 C1.9375 0.8125 1.9375 0.8125 4 2 C5.85966547 7.5789964 6.01385245 13.84556355 3.5 19.1875 C2.7575 20.0846875 2.7575 20.0846875 2 21 C1.34 20.67 0.68 20.34 0 20 C0.32484375 19.45214844 0.6496875 18.90429688 0.984375 18.33984375 C2.18187388 15.58099057 2.26663768 13.56144096 2.25 10.5625 C2.25773438 9.17224609 2.25773438 9.17224609 2.265625 7.75390625 C1.98451512 4.83945824 1.21247903 2.65109503 0 0 Z " fill="#805120" transform="translate(862,41)"/>
<path d="M0 0 C1.28596596 2.57193191 0.74411127 3.29519574 -0.0625 6 C-1.37744349 11.35556455 -0.42321807 15.75598879 1 21 C-2 19 -2 19 -3 16 C-3.90782977 4.72196097 -3.90782977 4.72196097 0 0 Z " fill="#815321" transform="translate(54,41)"/>
<path d="M0 0 C1.65 0.33 3.3 0.66 5 1 C4.625 2.9375 4.625 2.9375 4 5 C3.01 5.495 3.01 5.495 2 6 C1.01 5.34 0.02 4.68 -1 4 C-0.67 2.68 -0.34 1.36 0 0 Z " fill="#81531D" transform="translate(208,13)"/>
<path d="M0 0 C1.32 0.66 2.64 1.32 4 2 C3.67 3.32 3.34 4.64 3 6 C1.35 5.67 -0.3 5.34 -2 5 C-1.125 1.125 -1.125 1.125 0 0 Z M0 2 C0 2.66 0 3.32 0 4 C0.66 3.67 1.32 3.34 2 3 C1.34 2.67 0.68 2.34 0 2 Z " fill="#7D4F1C" transform="translate(707,84)"/>
<path d="M0 0 C0.99 0.66 1.98 1.32 3 2 C2.67 3.32 2.34 4.64 2 6 C1.01 6 0.02 6 -1 6 C-1.66 5.01 -2.32 4.02 -3 3 C-2.01 2.01 -1.02 1.02 0 0 Z " fill="#7A441C" transform="translate(882,73)"/>
<path d="M0 0 C0.99 0.66 1.98 1.32 3 2 C2.67 3.32 2.34 4.64 2 6 C1.01 6 0.02 6 -1 6 C-1.66 5.01 -2.32 4.02 -3 3 C-2.01 2.01 -1.02 1.02 0 0 Z " fill="#7A441C" transform="translate(831,73)"/>
<path d="M0 0 C0.99 0.66 1.98 1.32 3 2 C2.67 3.32 2.34 4.64 2 6 C1.01 6 0.02 6 -1 6 C-1.66 5.01 -2.32 4.02 -3 3 C-2.01 2.01 -1.02 1.02 0 0 Z " fill="#7A441C" transform="translate(757,71)"/>
<path d="M0 0 C0.99 0.66 1.98 1.32 3 2 C2.67 3.32 2.34 4.64 2 6 C1.01 6 0.02 6 -1 6 C-1.66 5.01 -2.32 4.02 -3 3 C-2.01 2.01 -1.02 1.02 0 0 Z " fill="#7A441C" transform="translate(740,70)"/>
<path d="M0 0 C0.99 0.66 1.98 1.32 3 2 C2.67 3.32 2.34 4.64 2 6 C1.01 6 0.02 6 -1 6 C-1.66 5.01 -2.32 4.02 -3 3 C-2.01 2.01 -1.02 1.02 0 0 Z " fill="#7A441C" transform="translate(728,60)"/>
<path d="M0 0 C0.99 0.66 1.98 1.32 3 2 C2.67 3.32 2.34 4.64 2 6 C1.01 6 0.02 6 -1 6 C-1.66 5.01 -2.32 4.02 -3 3 C-2.01 2.01 -1.02 1.02 0 0 Z " fill="#7A441C" transform="translate(808,56)"/>
<path d="M0 0 C0.99 0.66 1.98 1.32 3 2 C2.67 3.32 2.34 4.64 2 6 C1.01 6 0.02 6 -1 6 C-1.66 5.01 -2.32 4.02 -3 3 C-2.01 2.01 -1.02 1.02 0 0 Z " fill="#7A441C" transform="translate(874,49)"/>
<path d="M0 0 C0.99 0.66 1.98 1.32 3 2 C2.67 3.32 2.34 4.64 2 6 C1.01 6 0.02 6 -1 6 C-1.66 5.01 -2.32 4.02 -3 3 C-2.01 2.01 -1.02 1.02 0 0 Z " fill="#7A441C" transform="translate(846,48)"/>
<path d="M0 0 C0.99 0.66 1.98 1.32 3 2 C2.67 3.32 2.34 4.64 2 6 C1.01 6 0.02 6 -1 6 C-1.66 5.01 -2.32 4.02 -3 3 C-2.01 2.01 -1.02 1.02 0 0 Z " fill="#7A441C" transform="translate(806,48)"/>
<path d="M0 0 C0.99 0.66 1.98 1.32 3 2 C2.67 3.32 2.34 4.64 2 6 C1.01 6 0.02 6 -1 6 C-1.66 5.01 -2.32 4.02 -3 3 C-2.01 2.01 -1.02 1.02 0 0 Z " fill="#7A441C" transform="translate(726,44)"/>
<path d="M0 0 C0.99 0.66 1.98 1.32 3 2 C2.67 3.32 2.34 4.64 2 6 C1.01 6 0.02 6 -1 6 C-1.66 5.01 -2.32 4.02 -3 3 C-2.01 2.01 -1.02 1.02 0 0 Z " fill="#7A441C" transform="translate(773,43)"/>
<path d="M0 0 C0.99 0.66 1.98 1.32 3 2 C2.67 3.32 2.34 4.64 2 6 C1.01 6 0.02 6 -1 6 C-1.66 5.01 -2.32 4.02 -3 3 C-2.01 2.01 -1.02 1.02 0 0 Z " fill="#7A441C" transform="translate(808,40)"/>
<path d="M0 0 C0.99 0.66 1.98 1.32 3 2 C2.67 3.32 2.34 4.64 2 6 C1.01 6 0.02 6 -1 6 C-1.66 5.01 -2.32 4.02 -3 3 C-2.01 2.01 -1.02 1.02 0 0 Z " fill="#7A441C" transform="translate(749,24)"/>
<path d="M0 0 C0.99 0.66 1.98 1.32 3 2 C2.67 3.32 2.34 4.64 2 6 C1.01 6 0.02 6 -1 6 C-1.66 5.01 -2.32 4.02 -3 3 C-2.01 2.01 -1.02 1.02 0 0 Z " fill="#7A441C" transform="translate(882,23)"/>
<path d="M0 0 C0.99 0.66 1.98 1.32 3 2 C2.67 3.32 2.34 4.64 2 6 C1.01 6 0.02 6 -1 6 C-1.66 5.01 -2.32 4.02 -3 3 C-2.01 2.01 -1.02 1.02 0 0 Z " fill="#7A441C" transform="translate(831,23)"/>
<path d="M0 0 C0.99 0.66 1.98 1.32 3 2 C2.67 3.32 2.34 4.64 2 6 C1.01 6 0.02 6 -1 6 C-1.66 5.01 -2.32 4.02 -3 3 C-2.01 2.01 -1.02 1.02 0 0 Z " fill="#7A441C" transform="translate(707,13)"/>
<path d="M0 0 C0.99 0.66 1.98 1.32 3 2 C2.67 3.32 2.34 4.64 2 6 C1.01 6 0.02 6 -1 6 C-1.625 4.125 -1.625 4.125 -2 2 C-1.34 1.34 -0.68 0.68 0 0 Z " fill="#7B431C" transform="translate(770,60)"/>
<path d="M0 0 C0.99 0.66 1.98 1.32 3 2 C2.67 3.32 2.34 4.64 2 6 C1.01 6 0.02 6 -1 6 C-1.625 4.125 -1.625 4.125 -2 2 C-1.34 1.34 -0.68 0.68 0 0 Z " fill="#7B431C" transform="translate(764,29)"/>
<path d="M0 0 C1.98 0.495 1.98 0.495 4 1 C3.67 2.32 3.34 3.64 3 5 C1.68 4.67 0.36 4.34 -1 4 C-0.67 2.68 -0.34 1.36 0 0 Z M1 1 C1 1.99 1 2.98 1 4 C1.66 3.34 2.32 2.68 3 2 C2.34 1.67 1.68 1.34 1 1 Z " fill="#835325" transform="translate(209,84)"/>
<path d="M0 0 C1.98 0.495 1.98 0.495 4 1 C3.67 2.32 3.34 3.64 3 5 C1.68 4.67 0.36 4.34 -1 4 C-0.67 2.68 -0.34 1.36 0 0 Z M1 1 C1 1.99 1 2.98 1 4 C1.66 3.34 2.32 2.68 3 2 C2.34 1.67 1.68 1.34 1 1 Z " fill="#835325" transform="translate(85,74)"/>
<path d="M0 0 C1.98 0.495 1.98 0.495 4 1 C3.67 2.32 3.34 3.64 3 5 C1.68 4.67 0.36 4.34 -1 4 C-0.67 2.68 -0.34 1.36 0 0 Z M1 1 C1 1.99 1 2.98 1 4 C1.66 3.34 2.32 2.68 3 2 C2.34 1.67 1.68 1.34 1 1 Z " fill="#835325" transform="translate(34,74)"/>
<path d="M0 0 C1.98 0.495 1.98 0.495 4 1 C3.67 2.32 3.34 3.64 3 5 C1.68 4.67 0.36 4.34 -1 4 C-0.67 2.68 -0.34 1.36 0 0 Z M1 1 C1 1.99 1 2.98 1 4 C1.66 3.34 2.32 2.68 3 2 C2.34 1.67 1.68 1.34 1 1 Z " fill="#835325" transform="translate(167,73)"/>
<path d="M0 0 C1.98 0.495 1.98 0.495 4 1 C3.67 2.32 3.34 3.64 3 5 C1.68 4.67 0.36 4.34 -1 4 C-0.67 2.68 -0.34 1.36 0 0 Z M1 1 C1 1.99 1 2.98 1 4 C1.66 3.34 2.32 2.68 3 2 C2.34 1.67 1.68 1.34 1 1 Z " fill="#835325" transform="translate(108,57)"/>
<path d="M0 0 C1.98 0.495 1.98 0.495 4 1 C3.67 2.32 3.34 3.64 3 5 C1.68 4.67 0.36 4.34 -1 4 C-0.67 2.68 -0.34 1.36 0 0 Z M1 1 C1 1.99 1 2.98 1 4 C1.66 3.34 2.32 2.68 3 2 C2.34 1.67 1.68 1.34 1 1 Z " fill="#835325" transform="translate(143,54)"/>
<path d="M0 0 C1.98 0.495 1.98 0.495 4 1 C3.67 2.32 3.34 3.64 3 5 C1.68 4.67 0.36 4.34 -1 4 C-0.67 2.68 -0.34 1.36 0 0 Z M1 1 C1 1.99 1 2.98 1 4 C1.66 3.34 2.32 2.68 3 2 C2.34 1.67 1.68 1.34 1 1 Z " fill="#835325" transform="translate(190,53)"/>
<path d="M0 0 C1.98 0.495 1.98 0.495 4 1 C3.67 2.32 3.34 3.64 3 5 C1.68 4.67 0.36 4.34 -1 4 C-0.67 2.68 -0.34 1.36 0 0 Z M1 1 C1 1.99 1 2.98 1 4 C1.66 3.34 2.32 2.68 3 2 C2.34 1.67 1.68 1.34 1 1 Z " fill="#835325" transform="translate(110,49)"/>
<path d="M0 0 C1.98 0.495 1.98 0.495 4 1 C3.67 2.32 3.34 3.64 3 5 C1.68 4.67 0.36 4.34 -1 4 C-0.67 2.68 -0.34 1.36 0 0 Z M1 1 C1 1.99 1 2.98 1 4 C1.66 3.34 2.32 2.68 3 2 C2.34 1.67 1.68 1.34 1 1 Z " fill="#835325" transform="translate(70,49)"/>
<path d="M0 0 C1.98 0.495 1.98 0.495 4 1 C3.67 2.32 3.34 3.64 3 5 C1.68 4.67 0.36 4.34 -1 4 C-0.67 2.68 -0.34 1.36 0 0 Z M1 1 C1 1.99 1 2.98 1 4 C1.66 3.34 2.32 2.68 3 2 C2.34 1.67 1.68 1.34 1 1 Z " fill="#835325" transform="translate(42,48)"/>
<path d="M0 0 C1.98 0.495 1.98 0.495 4 1 C3.67 2.32 3.34 3.64 3 5 C1.68 4.67 0.36 4.34 -1 4 C-0.67 2.68 -0.34 1.36 0 0 Z M1 1 C1 1.99 1 2.98 1 4 C1.66 3.34 2.32 2.68 3 2 C2.34 1.67 1.68 1.34 1 1 Z " fill="#835325" transform="translate(108,41)"/>
<path d="M0 0 C1.98 0.495 1.98 0.495 4 1 C3.67 2.32 3.34 3.64 3 5 C1.68 4.67 0.36 4.34 -1 4 C-0.67 2.68 -0.34 1.36 0 0 Z M1 1 C1 1.99 1 2.98 1 4 C1.66 3.34 2.32 2.68 3 2 C2.34 1.67 1.68 1.34 1 1 Z " fill="#835325" transform="translate(188,37)"/>
<path d="M0 0 C1.98 0.495 1.98 0.495 4 1 C3.67 2.32 3.34 3.64 3 5 C1.68 4.67 0.36 4.34 -1 4 C-0.67 2.68 -0.34 1.36 0 0 Z M1 1 C1 1.99 1 2.98 1 4 C1.66 3.34 2.32 2.68 3 2 C2.34 1.67 1.68 1.34 1 1 Z " fill="#835325" transform="translate(146,37)"/>
<path d="M0 0 C1.98 0.495 1.98 0.495 4 1 C3.67 2.32 3.34 3.64 3 5 C1.68 4.67 0.36 4.34 -1 4 C-0.67 2.68 -0.34 1.36 0 0 Z M1 1 C1 1.99 1 2.98 1 4 C1.66 3.34 2.32 2.68 3 2 C2.34 1.67 1.68 1.34 1 1 Z " fill="#835325" transform="translate(176,27)"/>
<path d="M0 0 C1.98 0.495 1.98 0.495 4 1 C3.67 2.32 3.34 3.64 3 5 C1.68 4.67 0.36 4.34 -1 4 C-0.67 2.68 -0.34 1.36 0 0 Z M1 1 C1 1.99 1 2.98 1 4 C1.66 3.34 2.32 2.68 3 2 C2.34 1.67 1.68 1.34 1 1 Z " fill="#835325" transform="translate(159,26)"/>
<path d="M0 0 C1.98 0.495 1.98 0.495 4 1 C3.67 2.32 3.34 3.64 3 5 C1.68 4.67 0.36 4.34 -1 4 C-0.67 2.68 -0.34 1.36 0 0 Z M1 1 C1 1.99 1 2.98 1 4 C1.66 3.34 2.32 2.68 3 2 C2.34 1.67 1.68 1.34 1 1 Z " fill="#835325" transform="translate(85,24)"/>
<path d="M0 0 C1.98 0.495 1.98 0.495 4 1 C3.67 2.32 3.34 3.64 3 5 C1.68 4.67 0.36 4.34 -1 4 C-0.67 2.68 -0.34 1.36 0 0 Z M1 1 C1 1.99 1 2.98 1 4 C1.66 3.34 2.32 2.68 3 2 C2.34 1.67 1.68 1.34 1 1 Z " fill="#835325" transform="translate(34,24)"/>
<path d="" fill="#855526" transform="translate(0,0)"/>
<path d="" fill="#855526" transform="translate(0,0)"/>
</svg>
